<svg width="1126" height="990" viewBox="0 0 1126 990" fill="none" xmlns="http://www.w3.org/2000/svg">
<rect x="11" y="12" width="1114" height="977" fill="black" stroke="black" stroke-width="2"/>
<rect x="1" y="1" width="1114" height="977" fill="#F3F3F3" stroke="black" stroke-width="2"/>
<rect x="24" y="105" width="1067" height="847" fill="white" stroke="black" stroke-width="2"/>
<rect x="1031" y="116" width="48" height="825.974" fill="#F3F3F3" stroke="black" stroke-width="2"/>
<rect x="1031" y="197" width="48" height="428" fill="#3EAF2D" stroke="black" stroke-width="2"/>
<rect x="1031" y="116" width="48" height="43.836" fill="white" stroke="black" stroke-width="2"/>
<rect x="1031" y="898.138" width="48" height="43.836" fill="white" stroke="black" stroke-width="2"/>
<path d="M1040.2 912.742L1055.51 928.345L1070.82 912.742" stroke="black" stroke-width="2"/>
<path d="M1040.2 146.208L1055.51 130.604L1070.82 146.208" stroke="black" stroke-width="2"/>
<rect x="1" y="1" width="1114" height="65" fill="#3EAF2D" stroke="black" stroke-width="2"/>
<rect x="1057" y="11" width="47" height="45" fill="white" stroke="black" stroke-width="2"/>
<rect x="889" y="11" width="47" height="45" fill="white" stroke="black" stroke-width="2"/>
<path d="M1068 21L1081 34M1094 47L1081 34M1081 34L1094 21L1068 47" stroke="black" stroke-width="2"/>
<rect x="973" y="11" width="47" height="45" fill="white" stroke="black" stroke-width="2"/>
<rect x="980" y="17" width="33" height="33" fill="white" stroke="black" stroke-width="2"/>
<rect x="980" y="17" width="33" height="7" fill="black" stroke="black" stroke-width="2"/>
<path d="M895.5 50C897.1 50 918.833 50 929.5 50" stroke="black" stroke-width="2"/>
</svg>
