<svg width="1126" height="726" viewBox="0 0 1126 726" fill="none" xmlns="http://www.w3.org/2000/svg">
<rect x="11" y="11" width="1114" height="714" fill="black" stroke="black" stroke-width="2"/>
<rect x="1" y="1" width="1114" height="714" fill="#F3F3F3" stroke="black" stroke-width="2"/>
<rect x="24" y="105" width="1067" height="582" fill="white" stroke="black" stroke-width="2"/>
<rect x="1031" y="116" width="48" height="557" fill="#F3F3F3" stroke="black" stroke-width="2"/>
<rect x="1031" y="201" width="48" height="288.311" fill="#3EAF2D" stroke="black" stroke-width="2"/>
<rect x="1031" y="116" width="48" height="43.836" fill="white" stroke="black" stroke-width="2"/>
<rect x="1031" y="630" width="48" height="43.836" fill="white" stroke="black" stroke-width="2"/>
<path d="M1040.2 644.604L1055.51 660.207L1070.82 644.604" stroke="black" stroke-width="2"/>
<path d="M1040.2 146.208L1055.51 130.604L1070.82 146.208" stroke="black" stroke-width="2"/>
<rect x="1" y="1" width="1114" height="65" fill="#3EAF2D" stroke="black" stroke-width="2"/>
<rect x="1057" y="11" width="47" height="45" fill="white" stroke="black" stroke-width="2"/>
<rect x="889" y="11" width="47" height="45" fill="white" stroke="black" stroke-width="2"/>
<path d="M1068 21L1081 34M1094 47L1081 34M1081 34L1094 21L1068 47" stroke="black" stroke-width="2"/>
<rect x="973" y="11" width="47" height="45" fill="white" stroke="black" stroke-width="2"/>
<rect x="980" y="17" width="33" height="33" fill="white" stroke="black" stroke-width="2"/>
<rect x="980" y="17" width="33" height="7" fill="black" stroke="black" stroke-width="2"/>
<path d="M895.5 50C897.1 50 918.833 50 929.5 50" stroke="black" stroke-width="2"/>
</svg>
